<svg xmlns="http://www.w3.org/2000/svg" viewBox="0 0 1400 320" preserveAspectRatio="xMidYEnd slice">
  <defs>
    <radialGradient id="lampGlow" cx="50%" cy="50%" r="50%">
      <stop offset="0%" stop-color="#D97706" stop-opacity="0.18"/>
      <stop offset="100%" stop-color="#D97706" stop-opacity="0"/>
    </radialGradient>
  </defs>

  <!-- Ground line -->
  <line x1="0" y1="305" x2="1400" y2="305" stroke="#8B7355" stroke-width="1.5" opacity="0.35"/>

  <!-- Lamp glows -->
  <circle cx="220" cy="190" r="120" fill="url(#lampGlow)"/>
  <circle cx="700" cy="170" r="140" fill="url(#lampGlow)"/>
  <circle cx="1100" cy="200" r="100" fill="url(#lampGlow)"/>

  <!-- Building silhouettes (line-art style) -->
  <g stroke="#8B7355" stroke-width="1.5" fill="none" opacity="0.5">
    <!-- Shophouse 1 -->
    <path d="M 30 305 L 30 175 L 130 175 L 130 305"/>
    <path d="M 50 175 L 50 200 L 110 200 L 110 175"/>
    <path d="M 50 220 L 110 220"/>
    <rect x="55" y="240" width="20" height="35"/>
    <rect x="85" y="240" width="20" height="35"/>
    <path d="M 30 175 L 80 145 L 130 175"/>

    <!-- Shophouse 2 -->
    <path d="M 130 305 L 130 155 L 260 155 L 260 305"/>
    <path d="M 150 155 L 150 185 L 240 185 L 240 155"/>
    <path d="M 175 200 L 215 200"/>
    <path d="M 130 155 L 195 130 L 260 155"/>
    <rect x="170" y="220" width="50" height="50"/>

    <!-- Shophouse 3 -->
    <path d="M 260 305 L 260 195 L 360 195 L 360 305"/>
    <path d="M 280 215 L 340 215"/>
    <rect x="290" y="240" width="20" height="40"/>
    <rect x="320" y="240" width="20" height="40"/>

    <!-- Tall building -->
    <path d="M 360 305 L 360 100 L 500 100 L 500 305"/>
    <line x1="360" y1="140" x2="500" y2="140"/>
    <line x1="360" y1="180" x2="500" y2="180"/>
    <line x1="360" y1="220" x2="500" y2="220"/>
    <line x1="360" y1="260" x2="500" y2="260"/>
    <line x1="395" y1="100" x2="395" y2="305"/>
    <line x1="430" y1="100" x2="430" y2="305"/>
    <line x1="465" y1="100" x2="465" y2="305"/>

    <!-- Shophouse 4 -->
    <path d="M 500 305 L 500 170 L 620 170 L 620 305"/>
    <path d="M 520 190 L 600 190"/>
    <rect x="520" y="210" width="30" height="35"/>
    <rect x="565" y="210" width="35" height="35"/>
    <rect x="540" y="255" width="40" height="50"/>
    <path d="M 500 170 L 560 145 L 620 170"/>

    <!-- Shophouse 5 -->
    <path d="M 620 305 L 620 140 L 770 140 L 770 305"/>
    <path d="M 640 160 L 640 195 L 750 195 L 750 160"/>
    <line x1="685" y1="160" x2="685" y2="195"/>
    <line x1="705" y1="160" x2="705" y2="195"/>
    <path d="M 640 215 L 750 215"/>
    <rect x="680" y="240" width="40" height="65"/>

    <!-- Shophouse 6 -->
    <path d="M 770 305 L 770 175 L 870 175 L 870 305"/>
    <path d="M 790 195 L 850 195"/>
    <rect x="800" y="220" width="20" height="40"/>
    <rect x="830" y="220" width="20" height="40"/>
    <path d="M 770 175 L 820 150 L 870 175"/>

    <!-- Old wooden house -->
    <path d="M 870 305 L 870 200 L 990 200 L 990 305"/>
    <path d="M 870 200 L 930 165 L 990 200"/>
    <path d="M 890 220 L 970 220"/>
    <line x1="900" y1="220" x2="900" y2="305"/>
    <line x1="930" y1="240" x2="930" y2="305"/>
    <line x1="960" y1="220" x2="960" y2="305"/>

    <!-- Tall shophouse -->
    <path d="M 990 305 L 990 120 L 1110 120 L 1110 305"/>
    <line x1="990" y1="160" x2="1110" y2="160"/>
    <line x1="990" y1="200" x2="1110" y2="200"/>
    <line x1="990" y1="240" x2="1110" y2="240"/>
    <rect x="1010" y="135" width="20" height="20"/>
    <rect x="1045" y="135" width="20" height="20"/>
    <rect x="1080" y="135" width="20" height="20"/>
    <rect x="1010" y="175" width="20" height="20"/>
    <rect x="1045" y="175" width="20" height="20"/>
    <rect x="1080" y="175" width="20" height="20"/>
    <rect x="1040" y="260" width="40" height="45"/>

    <!-- Shophouse 7 -->
    <path d="M 1110 305 L 1110 165 L 1240 165 L 1240 305"/>
    <path d="M 1110 165 L 1175 135 L 1240 165"/>
    <path d="M 1130 185 L 1220 185"/>
    <rect x="1135" y="210" width="25" height="40"/>
    <rect x="1175" y="210" width="25" height="40"/>
    <rect x="1160" y="265" width="40" height="40"/>

    <!-- Last buildings -->
    <path d="M 1240 305 L 1240 195 L 1340 195 L 1340 305"/>
    <path d="M 1260 215 L 1320 215"/>
    <rect x="1265" y="240" width="20" height="40"/>
    <rect x="1295" y="240" width="20" height="40"/>

    <path d="M 1340 305 L 1340 175 L 1400 175 L 1400 305"/>
  </g>

  <!-- Window lights (warm glow accents) -->
  <g fill="#D97706" opacity="0.35">
    <rect x="55" y="245" width="20" height="6"/>
    <rect x="85" y="245" width="20" height="6"/>
    <rect x="170" y="225" width="50" height="5"/>
    <rect x="290" y="245" width="20" height="6"/>
    <rect x="320" y="245" width="20" height="6"/>
    <rect x="365" y="145" width="25" height="3"/>
    <rect x="400" y="145" width="25" height="3"/>
    <rect x="435" y="145" width="25" height="3"/>
    <rect x="470" y="145" width="25" height="3"/>
    <rect x="365" y="185" width="25" height="3"/>
    <rect x="435" y="185" width="25" height="3"/>
    <rect x="540" y="260" width="40" height="5"/>
    <rect x="680" y="245" width="40" height="5"/>
    <rect x="800" y="225" width="20" height="5"/>
    <rect x="830" y="225" width="20" height="5"/>
    <rect x="1040" y="265" width="40" height="5"/>
    <rect x="1135" y="215" width="25" height="4"/>
    <rect x="1175" y="215" width="25" height="4"/>
    <rect x="1265" y="245" width="20" height="5"/>
    <rect x="1295" y="245" width="20" height="5"/>
  </g>

  <!-- Tangled power lines (signature Bangkok!) -->
  <g stroke="#5C4A36" stroke-width="0.8" fill="none" opacity="0.55">
    <path d="M 0 75 Q 350 95 700 80 T 1400 75"/>
    <path d="M 0 80 Q 350 105 700 85 T 1400 82"/>
    <path d="M 0 85 Q 350 100 700 92 T 1400 88"/>
    <path d="M 0 90 Q 350 110 700 95 T 1400 90"/>
    <path d="M 0 95 Q 350 115 700 100 T 1400 98"/>
    <!-- Sagging extras -->
    <path d="M 200 85 Q 280 130 360 85" />
    <path d="M 600 88 Q 680 135 760 90" />
    <path d="M 1000 92 Q 1080 140 1160 95" />
  </g>

  <!-- Power poles -->
  <g stroke="#5C4A36" stroke-width="1.5" fill="none" opacity="0.6">
    <line x1="350" y1="60" x2="350" y2="155"/>
    <line x1="320" y1="70" x2="380" y2="70"/>
    <line x1="320" y1="80" x2="380" y2="80"/>
    <line x1="345" y1="68" x2="345" y2="82"/>
    <line x1="355" y1="68" x2="355" y2="82"/>

    <line x1="750" y1="55" x2="750" y2="140"/>
    <line x1="720" y1="65" x2="780" y2="65"/>
    <line x1="720" y1="78" x2="780" y2="78"/>
    <line x1="745" y1="62" x2="745" y2="80"/>
    <line x1="755" y1="62" x2="755" y2="80"/>

    <line x1="1150" y1="60" x2="1150" y2="165"/>
    <line x1="1120" y1="70" x2="1180" y2="70"/>
    <line x1="1120" y1="82" x2="1180" y2="82"/>
  </g>

  <!-- Street lamps -->
  <g stroke="#8B7355" stroke-width="1.2" fill="none" opacity="0.55">
    <line x1="220" y1="305" x2="220" y2="180"/>
    <path d="M 220 180 Q 220 170 232 170 L 245 170"/>
    <line x1="700" y1="305" x2="700" y2="160"/>
    <path d="M 700 160 Q 700 150 712 150 L 725 150"/>
    <line x1="1100" y1="305" x2="1100" y2="190"/>
    <path d="M 1100 190 Q 1100 180 1112 180 L 1125 180"/>
  </g>
  <g fill="#D97706" opacity="0.45">
    <circle cx="248" cy="172" r="4"/>
    <circle cx="728" cy="152" r="4"/>
    <circle cx="1128" cy="182" r="4"/>
  </g>

  <!-- Street vendor cart silhouette -->
  <g stroke="#8B7355" stroke-width="1.2" fill="none" opacity="0.5">
    <rect x="450" y="265" width="80" height="40"/>
    <line x1="450" y1="280" x2="530" y2="280"/>
    <path d="M 460 265 L 470 245 L 510 245 L 520 265"/>
    <line x1="475" y1="245" x2="475" y2="265"/>
    <line x1="495" y1="245" x2="495" y2="265"/>
    <circle cx="465" cy="305" r="5"/>
    <circle cx="515" cy="305" r="5"/>
  </g>

  <!-- Tuk-tuk silhouette -->
  <g stroke="#8B7355" stroke-width="1.2" fill="none" opacity="0.5">
    <path d="M 920 305 L 920 280 L 940 265 L 985 265 L 1000 280 L 1000 305"/>
    <line x1="940" y1="280" x2="985" y2="280"/>
    <line x1="960" y1="265" x2="960" y2="280"/>
    <circle cx="935" cy="305" r="6"/>
    <circle cx="985" cy="305" r="6"/>
  </g>
</svg>
