<svg xmlns="http://www.w3.org/2000/svg" viewBox="0 0 220 220" preserveAspectRatio="xMidYMid meet" shape-rendering="geometricPrecision" text-rendering="geometricPrecision">
  <defs>
    <filter id="bdShadow" x="-10%" y="-10%" width="120%" height="120%">
      <feDropShadow dx="0" dy="4" stdDeviation="6" flood-color="#000" flood-opacity="0.35"/>
    </filter>
  </defs>
  <g transform="translate(110 110) rotate(-10) translate(-88 -88)" filter="url(#bdShadow)">
    <!-- 8x8 board, square size 22 -->
    <g>
      <rect x="0"   y="0"   width="22" height="22" fill="#F5E6C8"/><rect x="22"  y="0"   width="22" height="22" fill="#A0763E"/><rect x="44"  y="0"   width="22" height="22" fill="#F5E6C8"/><rect x="66"  y="0"   width="22" height="22" fill="#A0763E"/><rect x="88"  y="0"   width="22" height="22" fill="#F5E6C8"/><rect x="110" y="0"   width="22" height="22" fill="#A0763E"/><rect x="132" y="0"   width="22" height="22" fill="#F5E6C8"/><rect x="154" y="0"   width="22" height="22" fill="#A0763E"/>
      <rect x="0"   y="22"  width="22" height="22" fill="#A0763E"/><rect x="22"  y="22"  width="22" height="22" fill="#F5E6C8"/><rect x="44"  y="22"  width="22" height="22" fill="#A0763E"/><rect x="66"  y="22"  width="22" height="22" fill="#F5E6C8"/><rect x="88"  y="22"  width="22" height="22" fill="#A0763E"/><rect x="110" y="22"  width="22" height="22" fill="#F5E6C8"/><rect x="132" y="22"  width="22" height="22" fill="#A0763E"/><rect x="154" y="22"  width="22" height="22" fill="#F5E6C8"/>
      <rect x="0"   y="44"  width="22" height="22" fill="#F5E6C8"/><rect x="22"  y="44"  width="22" height="22" fill="#A0763E"/><rect x="44"  y="44"  width="22" height="22" fill="#F5E6C8"/><rect x="66"  y="44"  width="22" height="22" fill="#A0763E"/><rect x="88"  y="44"  width="22" height="22" fill="#F5E6C8"/><rect x="110" y="44"  width="22" height="22" fill="#A0763E"/><rect x="132" y="44"  width="22" height="22" fill="#F5E6C8"/><rect x="154" y="44"  width="22" height="22" fill="#A0763E"/>
      <rect x="0"   y="66"  width="22" height="22" fill="#A0763E"/><rect x="22"  y="66"  width="22" height="22" fill="#F5E6C8"/><rect x="44"  y="66"  width="22" height="22" fill="#A0763E"/><rect x="66"  y="66"  width="22" height="22" fill="#F5E6C8"/><rect x="88"  y="66"  width="22" height="22" fill="#A0763E"/><rect x="110" y="66"  width="22" height="22" fill="#F5E6C8"/><rect x="132" y="66"  width="22" height="22" fill="#A0763E"/><rect x="154" y="66"  width="22" height="22" fill="#F5E6C8"/>
      <rect x="0"   y="88"  width="22" height="22" fill="#F5E6C8"/><rect x="22"  y="88"  width="22" height="22" fill="#A0763E"/><rect x="44"  y="88"  width="22" height="22" fill="#F5E6C8"/><rect x="66"  y="88"  width="22" height="22" fill="#A0763E"/><rect x="88"  y="88"  width="22" height="22" fill="#F5E6C8"/><rect x="110" y="88"  width="22" height="22" fill="#A0763E"/><rect x="132" y="88"  width="22" height="22" fill="#F5E6C8"/><rect x="154" y="88"  width="22" height="22" fill="#A0763E"/>
      <rect x="0"   y="110" width="22" height="22" fill="#A0763E"/><rect x="22"  y="110" width="22" height="22" fill="#F5E6C8"/><rect x="44"  y="110" width="22" height="22" fill="#A0763E"/><rect x="66"  y="110" width="22" height="22" fill="#F5E6C8"/><rect x="88"  y="110" width="22" height="22" fill="#A0763E"/><rect x="110" y="110" width="22" height="22" fill="#F5E6C8"/><rect x="132" y="110" width="22" height="22" fill="#A0763E"/><rect x="154" y="110" width="22" height="22" fill="#F5E6C8"/>
      <rect x="0"   y="132" width="22" height="22" fill="#F5E6C8"/><rect x="22"  y="132" width="22" height="22" fill="#A0763E"/><rect x="44"  y="132" width="22" height="22" fill="#F5E6C8"/><rect x="66"  y="132" width="22" height="22" fill="#A0763E"/><rect x="88"  y="132" width="22" height="22" fill="#F5E6C8"/><rect x="110" y="132" width="22" height="22" fill="#A0763E"/><rect x="132" y="132" width="22" height="22" fill="#F5E6C8"/><rect x="154" y="132" width="22" height="22" fill="#A0763E"/>
      <rect x="0"   y="154" width="22" height="22" fill="#A0763E"/><rect x="22"  y="154" width="22" height="22" fill="#F5E6C8"/><rect x="44"  y="154" width="22" height="22" fill="#A0763E"/><rect x="66"  y="154" width="22" height="22" fill="#F5E6C8"/><rect x="88"  y="154" width="22" height="22" fill="#A0763E"/><rect x="110" y="154" width="22" height="22" fill="#F5E6C8"/><rect x="132" y="154" width="22" height="22" fill="#A0763E"/><rect x="154" y="154" width="22" height="22" fill="#F5E6C8"/>
    </g>
    <!-- Mid-game pieces (same flavor as OG image) -->
    <g font-family="Georgia, serif" text-anchor="middle">
      <text x="99"  y="17"  font-size="20" fill="#1F2937">♚</text>
      <text x="165" y="17"  font-size="20" fill="#1F2937">♜</text>
      <text x="121" y="39"  font-size="18" fill="#1F2937">♟</text>
      <text x="143" y="39"  font-size="18" fill="#1F2937">♟</text>
      <text x="165" y="39"  font-size="18" fill="#1F2937">♟</text>
      <text x="55"  y="61"  font-size="20" fill="#1F2937">♞</text>
      <text x="121" y="61"  font-size="18" fill="#1F2937">♝</text>
      <!-- Highlighted Queen attack square -->
      <rect x="66" y="66" width="22" height="22" fill="rgba(251,191,36,0.45)" stroke="#FBBF24" stroke-width="1.6"/>
      <text x="77"  y="83"  font-size="20" fill="#1F2937">♛</text>
      <text x="99"  y="83"  font-size="18" fill="#1F2937">♟</text>
      <!-- White pieces -->
      <text x="99"  y="105" font-size="18" fill="#FFFFFF">♙</text>
      <text x="55"  y="105" font-size="20" fill="#FFFFFF">♗</text>
      <text x="77"  y="127" font-size="20" fill="#FFFFFF">♘</text>
      <text x="11"  y="149" font-size="18" fill="#FFFFFF">♙</text>
      <text x="33"  y="149" font-size="18" fill="#FFFFFF">♙</text>
      <text x="121" y="149" font-size="18" fill="#FFFFFF">♙</text>
      <text x="143" y="149" font-size="18" fill="#FFFFFF">♙</text>
      <text x="165" y="149" font-size="18" fill="#FFFFFF">♙</text>
      <text x="11"  y="171" font-size="20" fill="#FFFFFF">♖</text>
      <text x="99"  y="171" font-size="20" fill="#FFFFFF">♔</text>
      <text x="165" y="171" font-size="20" fill="#FFFFFF">♖</text>
    </g>
    <!-- Gold border -->
    <rect x="0" y="0" width="176" height="176" fill="none" stroke="#FBBF24" stroke-width="2.5" rx="3"/>
  </g>
</svg>
